# xmcd
# Copyright (C) 1995-1998 Ti Kan
#
# Track frame offsets:
#       150
#       18127
#       40731
#       62275
#       82075
#
# Disc length: 1460 seconds
#
# Revision: 0
# Processed by: cddbd v1.5.2PL0 Copyright (c) Steve Scherf et al.
# Submitted via: CD-Import v1.0
#
DISCID=2e05b205
DTITLE=The Wings Of Love - Glam Is Back
DYEAR=07
DGENRE=
TTITLE0=Born On The Wings Of Love
TTITLE1=So Much Love
TTITLE2=Shit In My Bed
TTITLE3=Black Diamond
TTITLE4=Dying Ros
EXTD=
EXTT0=
EXTT1=
EXTT2=
EXTT3=
EXTT4=
PLAYORDER=
